<?xml version="1.0" encoding="utf-8"?>
<!-- Generator: Adobe Illustrator 23.0.6, SVG Export Plug-In . SVG Version: 6.00 Build 0)  -->
<svg version="1.1" id="Ebene_1" xmlns="http://www.w3.org/2000/svg" xmlns:xlink="http://www.w3.org/1999/xlink" x="0px" y="0px"
	 viewBox="40 -250 150 280" style="enable-background:new 40 -250 150 280;" xml:space="preserve">
<!--style type="text/css">
	.easy_ui_icon{fill:#004da0;}
</style-->
    <path class="easy_ui_icon" transform="scale(1,-1)" d="M63.351902,185.15034 L79.569901,185.15134 95.787903,185.15034 105.8689,202.61234 53.269901,202.61234 z M171.2682,185.15024 L187.4852,185.15124 194.8662,185.15124 194.8662,195.13224 C194.8662,199.25724 191.4772,202.61324 187.3112,202.61324 L161.1862,202.61324 z M117.1929,153.98304 L133.4099,153.98504 149.6279,153.98304 165.84489,182.07305 153.9859,202.61304 112.8349,202.61304 100.9759,182.07305 z M41.712696,153.98304 L57.929703,182.07305 46.070704,202.61304 22.402699,202.61304 C18.236701,202.61304 14.848701,199.25704 14.848702,195.13204 L14.848702,153.98404 25.494705,153.98504 z M171.269,122.96734 L187.48601,122.96935 194.866,122.96834 194.866,179.14534 187.487,179.14434 171.269,179.14634 155.052,151.05734 z M63.352303,122.96734 L79.570301,122.96935 95.7873,122.96734 112.0043,151.05734 95.7873,179.14634 79.571301,179.14434 63.352303,179.14634 47.135302,151.05734 z M14.848702,91.801941 L25.494705,91.80294 41.712696,91.801941 57.929703,119.89194 41.712696,147.97994 25.494705,147.97994 14.848702,147.97994 z M22.427002,61.668137 L101.148,61.668137 94.389999,73.459137 22.427002,73.459137 C16.608002,73.459137 11.873002,78.16114 11.873,83.941139 L11.873,195.30214 C11.873002,201.08114 16.608002,205.78314 22.427002,205.78315 L187.336,205.78315 C193.15601,205.78314 197.89,201.08114 197.89,195.30214 L197.89,83.941139 C197.89,78.16114 193.15601,73.459137 187.336,73.459137 L172.798,73.414139 166.015,61.668137 187.336,61.668137 C199.702,61.668137 209.763,71.659149 209.763,83.941139 L209.763,195.30214 C209.763,207.58314 199.702,217.57414 187.336,217.57414 L22.427002,217.57414 C10.061002,217.57414 1.9073486E-06,207.58314 0,195.30214 L0,83.941139 C1.9073486E-06,71.659149 10.061002,61.668137 22.427002,61.668137 z M149.6279,45.455048 L165.8439,73.544037 149.6279,101.63404 133.4109,101.63204 117.1929,101.63404 100.9759,73.544037 105.4029,65.876038 C113.4969,70.903046 121.1349,75.616043 123.6899,77.018036 127.1259,78.896042 130.2769,79.467041 133.0629,78.720039 135.5999,78.040047 137.6339,76.312042 138.7899,73.851044 139.6389,72.042038 139.9979,69.920044 139.8869,67.364044 139.7609,64.317047 139.4559,55.215042 139.1369,45.456039 z M97.78698,0 L97.988335,0.014587402 98.120964,0.014846802 98.215141,0.031021118 98.337471,0.039886475 98.653938,0.10635376 98.793663,0.13035583 98.833214,0.14401245 98.880707,0.1539917 C99.059746,0.20414734 99.236328,0.26629639 99.409218,0.34007263 L99.428154,0.34962463 99.445824,0.35574341 99.537262,0.40473938 99.915527,0.59580994 99.997612,0.65145874 100.06344,0.68673706 100.17774,0.77357483 100.39217,0.91894531 100.53397,1.04422 100.63249,1.1190643 100.7078,1.1977692 100.83167,1.3071899 101.03796,1.5428314 101.139,1.6484528 101.17121,1.6950531 101.22655,1.7582855 C101.34991,1.9188538 101.4646,2.0895233 101.56936,2.2699127 L114.39536,24.361923 C114.39545,24.371857 114.40376,24.37442 114.41985,24.369995 L114.49066,24.336395 114.50558,24.326996 114.60346,24.264862 114.65983,24.22551 114.7553,24.158463 114.85812,24.082825 114.9434,24.019836 115.09521,23.904694 115.16502,23.851563 115.37104,23.692215 115.41357,23.659225 115.92863,23.253632 116.20151,23.036774 116.66934,22.663712 116.8619,22.509537 117.49626,22.001144 117.9577,21.631317 118.10275,21.514999 118.13331,21.490555 118.35388,21.313782 118.70697,21.03183 119.02761,20.775421 119.11871,20.703049&#xD;&#xA;119.26232,20.588364 119.6104,20.312378 119.99239,20.008881 120.09126,19.931122 120.2037,19.841965 120.56007,19.562408 120.97745,19.234146 121.06873,19.163376 121.16015,19.09166 121.53156,18.804565 121.96317,18.469971 122.03941,18.412003 122.11378,18.354523 122.50834,18.055557 122.92989,17.735107 122.98737,17.692581 123.04671,17.647614 123.4752,17.331589 123.85801,17.048309 123.89593,17.021286 123.94108,16.987991 124.4244,16.644638 124.72788,16.428345&#xD;&#xA;124.7476,16.415039 124.77898,16.392746 125.3925,15.979904 125.51987,15.893951 125.52421,15.891281 125.54257,15.878922 C125.78272,15.723114 126.00751,15.58374 126.21394,15.463608 126.40694,15.378113 126.59544,15.302856 126.77907,15.237366 L126.8887,15.203049 126.97043,15.171432 127.0984,15.137405 127.31495,15.069611 127.49861,15.030975 127.67387,14.984375 127.80123,14.967331 127.93272,14.939667 128.14292,14.921585 128.32543,14.897156 128.41477,14.898193 128.508,14.890182 128.7445,14.902054 128.92587,14.90416 128.98233,14.913986 129.04137,14.916946 129.31174,14.971268 129.4759,14.999817 129.50429,15.009964 129.53336,15.015793 129.89762,15.150421 129.97629,15.178513 129.98125,15.181335&#xD;&#xA;129.98456,15.182556 C130.12822,15.248993 130.26517,15.32605 130.39549,15.413025 L130.41105,15.425171 130.42778,15.434662 130.53936,15.525406 130.76673,15.703018 130.7989,15.736465 130.83112,15.762665 130.93881,15.881973 131.09882,16.04837 131.14343,16.108627 131.18703,16.156921 131.27532,16.286804 131.39233,16.44487 131.44537,16.536957 131.49628,16.611847 131.56346,16.741974 131.64779,16.888367 131.70537,17.0168 131.7596,17.121841 131.80736,17.244339 131.86578,17.374649 131.9241,17.543747 131.97774,17.68129 132.00896,17.789734&#xD;&#xA;132.04684,17.899551 132.10232,18.114014 132.15144,18.284637 132.16945,18.373535 132.19153,18.458878 132.24075,18.725372 132.28145,18.926239 132.28983,18.99115 132.30041,19.048447 132.34039,19.382706 132.36851,19.60054 132.3709,19.637833 132.37403,19.664093 132.40472,20.166916 132.41336,20.301926 C132.51637,23.582916 133.69637,60.751923 133.98136,67.61792 L133.98155,67.64357 133.99446,68.197601 133.98817,68.522888 133.98885,68.613754 133.98553,68.658844 133.98388,68.744431 C133.97638,68.921188 133.96494,69.092453 133.94961,69.25824 L133.92852,69.434479 133.92313,69.507828 133.91206,69.572021 133.89206,69.739227 C133.86904,69.894089 133.84221,70.043518 133.81162,70.187515 L133.79295,70.262955 133.78639,70.301025 133.7691,70.359314 133.70872,70.603302 133.64819,70.766998 133.5808,70.994232 133.49477,71.181946 133.43707,71.337982 133.37446,71.444443 133.30853,71.588318 133.16931,71.793289 133.08035,71.94455 133.02673,72.003204 132.97174,72.084167 132.75375,72.301834 132.64178,72.424316 132.60768,72.447662 132.57263,72.482666 132.1708,72.746902 132.12457,72.778564 132.11987,72.780396 132.11337,72.784668 C131.95049,72.869354 131.77795,72.93811 131.59611,72.991074 L131.55795,72.99852 131.53194,73.008606 C131.3737,73.051102 131.20856,73.081924 131.03677,73.101135 L131.02983,73.10144 131.02304,73.102768 130.95168,73.104797 130.50168,73.124115 130.44183,73.119308 130.39634,73.120605 130.23428,73.102646 129.92813,73.078079 129.80631,73.055237 129.71818,73.045486 129.55863,73.008804 129.31757,72.963608 129.12245,72.908554 128.99072,72.878265 128.85662,72.833527 128.67142,72.781265 128.386,72.676514 128.21615,72.619858 128.11938,72.578674 127.99115,72.531616 127.57922,72.348801 127.39664,72.271118 127.34496,72.244843&#xD;&#xA;127.27818,72.21521 126.54929,71.8405 126.53436,71.832916 C126.45288,71.788223 126.36562,71.739792 126.27276,71.687714 L126.13834,71.611664 125.97713,71.520477 C120.57543,68.44101 100.51807,55.83844 90.928406,49.923691 L90.363609,49.575897 89.870201,49.272079 C88.524467,48.444977 87.449356,47.790909 86.736359,47.368912 86.398922,47.169342 86.087708,46.968948 85.801586,46.768112 L85.801292,46.767899 C82.939957,44.759491 82.58807,42.707764 83.616112,41.014481 84.130074,40.167709 84.988861,39.410797 86.051361,38.793915 86.63636,38.453033 90.638229,36.84433 93.994438,35.480591 L94.144402,35.41954 95.083588,35.037125 C97.191788,34.176575 98.812447,33.499603 98.741943,33.454605 L85.916946,11.363617 C85.077507,9.921936 85.094051,8.2353973 85.817749,6.9545898 L85.818138,6.9539795 C86.147118,6.3717194 86.622177,5.8733521 87.229362,5.5199127 L95.842361,0.516922 96.085152,0.39710999 96.29744,0.29148865 96.30304,0.2895813 96.308601,0.28683472 96.45388,0.23822021 96.769943,0.13061523 96.781494,0.12860107 96.791862,0.12513733 C96.955162,0.082443237 97.120361,0.050857544 97.286522,0.030090332 L97.37822,0.024581909 97.441719,0.013504028 97.558479,0.01373291 z">
    </path>
</svg>
