<?xml version="1.0" encoding="UTF-8" standalone="no"?>

<svg width="100%" height="100%" viewBox="0 0 20.954 20.954" xmlns="http://www.w3.org/2000/svg" xmlns:svg="http://www.w3.org/2000/svg">

  <defs>
    <linearGradient id="fanLinearGradient1" gradientUnits="userSpaceOnUse" x1="416.13" x2="423.56" y1="757.65" y2="829.77" gradientTransform="matrix(.094448 -.047472 .048918 .091656 84.681 117.02)">
      <stop offset="0" stop-color="#fff"/>
      <stop offset="1" stop-color="#fff" stop-opacity="0"/>
    </linearGradient>
    <linearGradient id="fanLinearGradient2" gradientUnits="userSpaceOnUse" x1="20.916" x2="20.562" y1="32.257" y2="26.22" gradientTransform="matrix(.84830 -.42881 .42881 .84830 139.39 167.33)">
      <stop offset="0" stop-color="#2e3436"/>
      <stop offset="1" stop-color="#2e3436" stop-opacity="0"/>
    </linearGradient>
  </defs>

  <g class ="fanShapes" transform="translate(-.022946 -.060930)">
    <g transform="matrix(1.0011 0 0 1.0011 -3771.7 -234.76)">

      <path id="fanMainShape" d="m3785 248a3 3 0 0 1 -3 3 3 3 0 0 1 -3 -3 3 3 0 0 1 3 -3 3 3 0 0 1 3 3z" transform="matrix(3.3158 0 0 3.3158 -8762.3 -577.32)" stroke="#000" stroke-width=".32632" stroke-linejoin="bevel" fill="#c0c0c0"/>

      <g stroke="#000">
        <path id="fanShape1" style="color:#000000" d="m3781.5 236.28c0.4271 0.1849 0.7917 0.36589 1.1875 0.57813l4.3399 10.75c-0.085 0.40239-0.2996 0.89458-0.4494 1.2422z" stroke-width=".01"/>
        <path id="fanShape2" style="color:#000000" d="m3774.5 236.28c-0.4271 0.1849-0.7918 0.36589-1.1875 0.57813l-4.3399 10.75c0.1498 0.49609 0.2683 0.80859 0.4493 1.2422z" stroke-width=".01"/>

        <g transform="translate(3611.6 -47.106)" stroke-width=".92369" fill="none">
          <path id="fanShape3" d="m165.89 284.59c-0.49555 0.91436-0.77956 1.9637-0.77956 3.0759 0 1.4559 0.4842 2.7991 1.2964 3.8808 0.81218-1.0817 1.2964-2.425 1.2964-3.8808 0-1.1122-0.28403-2.1615-0.77956-3.0759h-1.0338z"/>
          <path id="fanShape4" d="m160.32 296c1.0396-0.028 2.0904-0.30672 3.0536-0.86281 1.2608-0.72793 2.182-1.8189 2.7127-3.0632-1.3429-0.16253-2.7484 0.0898-4.0091 0.81767-0.96315 0.55607-1.7299 1.3267-2.274 2.213l0.51688 0.89526z"/>
          <path id="fanShape5" d="m173.02 295.11c-0.54408-0.88633-1.3108-1.657-2.274-2.213-1.2608-0.72792-2.6662-0.98023-4.0091-0.81767 0.53068 1.2442 1.4519 2.3353 2.7127 3.0632 0.96315 0.55607 2.0139 0.83478 3.0536 0.86282l0.51688-0.89527z"/>
        </g>
      </g>

      <g class ="fanShadows" transform="translate(3613.1 70.601)">
        <path id="fanShadow1" d="m170.45 167.6c1.518 2.8442-2.7744-1.0303-7.6785 2.832-3.4009 2.6785-4.8951 7.095-6.413 4.2508-1.518-2.8442 0.69384-6.7832 4.2958-8.6939 3.8454-2.0398 8.6661-0.80623 9.7957 1.6111z" opacity=".7" fill="url(#fanLinearGradient1)"/>
        <path id="fanShadow2" d="m162.63 183.55c2.1099 0.53551 4.3975 0.33986 6.4927-0.71928s3.6092-2.7852 4.4291-4.8017l-10.922 5.521z" opacity=".2" fill="url(#fanLinearGradient2)"/>
      </g>
    </g>
  </g>
</svg>
