<?xml version="1.0" encoding="utf-8"?>
<!-- Generator: Adobe Illustrator 23.0.6, SVG Export Plug-In . SVG Version: 6.00 Build 0)  -->
<svg version="1.1" id="Ebene_1" xmlns="http://www.w3.org/2000/svg" xmlns:xlink="http://www.w3.org/1999/xlink" x="0px" y="0px"
	 viewBox="0 0 113.4 35.1" style="enable-background:new 0 0 113.4 35.1;" xml:space="preserve">
<style type="text/css">
	.st0{fill:#004da0;}
</style>
<path class="st0" d="M41.1,20.8c0-6.5-4.7-12.7-12.1-12.7c-7.7,0-13.1,6.3-13.1,13.5c0,2,0.4,3.9,1,5.6c-0.3,0-0.5-0.1-0.8-0.1H7.8
	V4.1C7.8,1.4,6.1,0,3.9,0S0,1.4,0,4.1v26.4c0,2.5,1.9,3.9,3.9,3.9h12.2c2.1,0,3.4-1,3.8-2.7c2.2,2.2,5.3,3.5,9.1,3.5
	c5.6,0,11.7-2.4,11.7-6c0-1.9-1.4-3.2-3.1-3.2c-1.7,0-4,2.3-7.7,2.3c-4.8,0-6-2.6-6-4.2h13.5C39.8,24.1,41.1,23.5,41.1,20.8z
	 M23.9,19c0-1.7,1.9-4.5,4.8-4.5s4.8,2.8,4.8,4.5H23.9z"/>
<path class="st0" d="M56.5,8.1c-3.2,0-5.2,1-6.4,2.9c-0.5-1.1-1.7-2.4-3.7-2.4c-2.2,0-3.7,1.7-3.7,3.9v18.3c0,2.2,1.5,3.9,3.7,3.9
	c2.2,0,3.7-1.7,3.7-3.9V19c0-2.6,1.5-4.5,4.1-4.5s4.1,1.9,4.1,4.5v11.8c0,2.2,1.5,3.9,3.7,3.9c2.2,0,3.7-1.7,3.7-3.9V16.9
	C65.8,10.8,61.6,8.1,56.5,8.1z"/>
<path class="st0" d="M85.6,27.5h-7.9L88,13.7c0.6-0.9,1-1.5,1-2.2c0-0.7-0.2-1.3-0.7-1.8c-0.7-0.7-1.4-0.9-2.8-0.9H71.1
	c-2.4,0-3.9,1.1-3.9,3.4c0,2.4,1.5,3.4,3.9,3.4h6.6L68.1,29c-1.1,1.5-1.1,2.2-1.1,2.8c0,0.5,0.1,1.5,1.1,2.1
	c0.7,0.4,1.1,0.5,2.5,0.5h15.1c2.4,0,3.9-1.1,3.9-3.4C89.6,28.5,88,27.5,85.6,27.5z"/>
<path class="st0" d="M109.9,25.9c-1.7,0-4,2.3-7.7,2.3c-4.8,0-6-2.6-6-4.2h13.5c2.4,0,3.6-0.6,3.6-3.3c0-6.5-4.7-12.7-12.1-12.7
	c-7.7,0-13.1,6.3-13.1,13.5c0,7.5,5,13.5,13.1,13.5c5.6,0,11.7-2.4,11.7-6C113,27.2,111.6,25.9,109.9,25.9z M101.1,14.5
	c2.9,0,4.8,2.8,4.8,4.5h-9.7C96.3,17.3,98.2,14.5,101.1,14.5z"/>
</svg>
