<svg xmlns="http://www.w3.org/2000/svg" viewBox="0 0 9 6">
  <path
     d="M 0.01120895,0.00848429 H 9.011209 V 6.0084684 H 0.01120895 Z"
     style="fill:#012169;stroke-width:0.01325823"
     id="path2" />
  <path
     d="M 1.065896,0.00848429 4.497145,2.2709782 7.914329,0.00848429 h 1.09688 v 0.774999 L 5.636206,3.0209762 9.011209,5.2459694 v 0.762499 H 7.886206 L 4.511209,3.7709744 1.150271,6.0084684 H 0.01120895 V 5.2584704 L 3.372147,3.0334772 0.01120895,0.80848429 v -0.8 z"
     style="fill:#ffffff;stroke-width:0.01325823"
     id="path4" />
  <path
     d="M 5.9625021,3.512509 9.0000051,5.5 V 6 L 5.1890691,3.512509 Z M 3.3750081,3.762506 3.4593781,4.200003 0.7593741,6 H 0 Z M 9.000005,1.589e-5 v 0.03749 L 5.49844,2.3874998 5.52655,1.8375018 8.296858,3.89e-6 Z m -9,0 3.3609381,2.19999591 H 2.5171941 L 5e-6,0.52501689 Z"
     style="fill:#c8102e;stroke-width:0.01325823"
     id="path6" />
  <path
     d="M 3.400271,0.00848429 V 6.0084684 h 2.25 V 0.00848429 Z M 0.01120895,2.0084802 V 4.0084714 H 9.011209 V 2.0084802 Z"
     id="path8"
     style="fill:#ffffff;stroke-width:0.01325823" />
  <path
     d="M 0.01120895,2.4209762 V 3.6209724 H 9.011209 V 2.4209762 Z M 3.850274,0.00848429 V 6.0084684 H 5.200273 V 0.00848429 Z"
     style="fill:#c8102e;stroke-width:0.01325823"
     id="path9" />
</svg>
