<?xml version="1.0" encoding="UTF-8"?><svg xmlns="http://www.w3.org/2000/svg" viewBox="0 0 186.8 98.13"><defs><style>.c{fill:#004da0;}</style></defs><g id="a"><g><path class="c" d="M56.57,41.39c0-4.88-3.55-9.51-9.08-9.51s-9.8,4.74-9.8,10.12c0,1.51,.27,2.93,.78,4.21-.2-.03-.41-.04-.64-.04h-6.25V28.86c0-2.05-1.22-3.09-2.91-3.09s-2.91,1.04-2.91,3.09v19.78c0,1.87,1.4,2.91,2.91,2.91h9.15c1.56,0,2.57-.79,2.84-2.02,1.68,1.62,4,2.6,6.82,2.6,4.24,0,8.8-1.8,8.8-4.52,0-1.44-1.08-2.41-2.33-2.41s-2.98,1.76-5.74,1.76c-3.59,0-4.49-1.94-4.49-3.12h10.12c1.8,0,2.73-.47,2.73-2.44m-12.85-1.4c0-1.26,1.44-3.37,3.63-3.37s3.62,2.12,3.62,3.37h-7.25Z"/><path class="c" d="M68.13,31.87c-2.41,0-3.91,.75-4.81,2.15-.36-.83-1.29-1.8-2.8-1.8-1.65,0-2.8,1.29-2.8,2.91v13.71c0,1.62,1.15,2.91,2.8,2.91s2.8-1.29,2.8-2.91v-8.87c0-1.94,1.15-3.37,3.09-3.37s3.09,1.44,3.09,3.37v8.87c0,1.62,1.15,2.91,2.8,2.91s2.8-1.29,2.8-2.91v-10.38c0-4.59-3.09-6.61-6.97-6.61"/><path class="c" d="M89.99,46.38h-5.92l7.68-10.3c.47-.65,.72-1.11,.72-1.62s-.14-.97-.5-1.33c-.54-.54-1.08-.68-2.12-.68h-10.77c-1.8,0-2.94,.79-2.94,2.59s1.15,2.58,2.94,2.58h4.92l-7.18,9.87c-.83,1.15-.86,1.65-.86,2.08,0,.36,.11,1.11,.83,1.58,.5,.29,.83,.39,1.87,.39h11.34c1.8,0,2.94-.79,2.94-2.59s-1.15-2.58-2.94-2.58"/><path class="c" d="M108.19,45.19c-1.29,0-2.98,1.76-5.74,1.76-3.59,0-4.49-1.94-4.49-3.12h10.12c1.8,0,2.73-.47,2.73-2.44,0-4.88-3.56-9.51-9.08-9.51s-9.8,4.74-9.8,10.12,3.77,10.12,9.8,10.12c4.24,0,8.8-1.8,8.8-4.52,0-1.44-1.08-2.41-2.33-2.41m-6.61-8.58c2.19,0,3.63,2.12,3.63,3.37h-7.25c0-1.26,1.44-3.37,3.63-3.37"/></g></g><g id="b"><g><path d="M29.6,63.58c.75,0,1.4,.16,1.93,.48,.54,.32,.95,.77,1.24,1.36,.29,.58,.43,1.27,.43,2.07v.89h-5.85c.02,.92,.25,1.63,.71,2.12s1.1,.74,1.93,.74c.55,0,1.04-.05,1.46-.16,.43-.1,.87-.26,1.33-.46v1.32c-.43,.2-.87,.34-1.3,.43-.44,.09-.96,.14-1.56,.14-.83,0-1.57-.17-2.2-.5s-1.12-.83-1.47-1.48c-.35-.65-.52-1.46-.52-2.42s.16-1.76,.48-2.44c.32-.68,.77-1.19,1.35-1.55,.58-.36,1.26-.54,2.04-.54Zm0,1.22c-.64,0-1.15,.21-1.53,.62-.39,.41-.61,1.01-.68,1.78h4.24c0-.47-.08-.89-.23-1.25-.15-.36-.37-.64-.66-.85s-.67-.3-1.14-.3Z"/><path d="M39.74,63.58c1,0,1.76,.25,2.3,.75s.8,1.3,.8,2.41v5.62h-1.56v-5.41c0-.69-.15-1.21-.45-1.55-.3-.35-.77-.52-1.39-.52-.89,0-1.52,.26-1.87,.79-.36,.53-.54,1.29-.54,2.29v4.4h-1.57v-8.63h1.24l.23,1.21h.09c.18-.3,.41-.56,.7-.76,.28-.2,.6-.36,.94-.46,.35-.1,.71-.15,1.09-.15Z"/><path d="M48.18,76.22c-1.15,0-2.04-.21-2.66-.63s-.93-1.01-.93-1.77c0-.54,.17-.99,.51-1.37,.34-.37,.81-.62,1.42-.75-.23-.1-.43-.26-.59-.48s-.25-.46-.25-.73c0-.32,.09-.59,.27-.83s.45-.46,.81-.68c-.45-.19-.82-.5-1.1-.94-.28-.44-.41-.95-.41-1.53,0-.62,.13-1.15,.39-1.59,.26-.44,.64-.77,1.14-1,.5-.23,1.1-.34,1.81-.34,.16,0,.32,0,.49,.02,.17,.01,.33,.03,.48,.06,.15,.03,.27,.05,.37,.08h2.97v.93l-1.53,.24c.15,.2,.27,.43,.37,.7s.14,.57,.14,.89c0,.88-.3,1.57-.9,2.08-.6,.51-1.42,.76-2.48,.76-.25,0-.49-.03-.74-.06-.22,.13-.39,.27-.51,.43-.11,.15-.17,.33-.17,.53,0,.15,.05,.27,.15,.37,.1,.09,.25,.16,.44,.21,.19,.04,.43,.07,.71,.07h1.5c.94,0,1.66,.2,2.16,.59s.75,.98,.75,1.74c0,.96-.4,1.71-1.19,2.23s-1.94,.78-3.43,.78Zm.05-1.15c.67,0,1.24-.07,1.69-.2,.45-.14,.79-.33,1.02-.58,.23-.25,.34-.55,.34-.89,0-.31-.07-.55-.22-.72-.15-.17-.37-.28-.66-.33-.29-.06-.65-.09-1.08-.09h-1.42c-.37,0-.68,.06-.96,.17-.27,.12-.48,.28-.63,.5s-.23,.48-.23,.8c0,.43,.19,.76,.56,.99,.37,.23,.9,.34,1.59,.34Zm.34-6.8c.58,0,1.01-.15,1.3-.46,.29-.3,.43-.74,.43-1.31,0-.61-.15-1.07-.44-1.38-.29-.31-.72-.46-1.3-.46s-.99,.16-1.28,.47c-.29,.32-.44,.78-.44,1.38,0,.56,.15,.99,.45,1.29,.3,.31,.72,.46,1.28,.46Z"/><path d="M55.69,60.48c.25,0,.47,.07,.65,.22,.18,.15,.27,.38,.27,.71s-.09,.57-.27,.72c-.18,.15-.39,.22-.65,.22s-.47-.07-.65-.22c-.17-.15-.26-.39-.26-.72s.09-.57,.26-.71c.17-.15,.39-.22,.65-.22Zm.78,3.26v8.63h-1.57v-8.63h1.57Z"/><path d="M63.36,63.58c1,0,1.76,.25,2.3,.75s.8,1.3,.8,2.41v5.62h-1.56v-5.41c0-.69-.15-1.21-.45-1.55-.3-.35-.77-.52-1.39-.52-.89,0-1.52,.26-1.87,.79-.36,.53-.54,1.29-.54,2.29v4.4h-1.57v-8.63h1.24l.23,1.21h.09c.18-.3,.41-.56,.7-.76,.28-.2,.6-.36,.94-.46,.35-.1,.71-.15,1.09-.15Z"/><path d="M72.4,63.58c.75,0,1.4,.16,1.93,.48,.54,.32,.95,.77,1.24,1.36,.29,.58,.43,1.27,.43,2.07v.89h-5.85c.02,.92,.25,1.63,.71,2.12s1.1,.74,1.93,.74c.55,0,1.04-.05,1.46-.16,.43-.1,.87-.26,1.33-.46v1.32c-.43,.2-.87,.34-1.3,.43-.44,.09-.96,.14-1.56,.14-.83,0-1.57-.17-2.2-.5s-1.12-.83-1.47-1.48c-.35-.65-.52-1.46-.52-2.42s.16-1.76,.48-2.44c.32-.68,.77-1.19,1.35-1.55,.58-.36,1.26-.54,2.04-.54Zm0,1.22c-.64,0-1.15,.21-1.53,.62-.39,.41-.61,1.01-.68,1.78h4.24c0-.47-.08-.89-.23-1.25-.15-.36-.37-.64-.66-.85s-.67-.3-1.14-.3Z"/><path d="M81.63,63.58c.75,0,1.4,.16,1.93,.48,.54,.32,.95,.77,1.24,1.36,.29,.58,.43,1.27,.43,2.07v.89h-5.85c.02,.92,.25,1.63,.71,2.12s1.1,.74,1.93,.74c.55,0,1.04-.05,1.46-.16,.43-.1,.87-.26,1.33-.46v1.32c-.43,.2-.87,.34-1.3,.43-.44,.09-.96,.14-1.56,.14-.83,0-1.57-.17-2.2-.5s-1.12-.83-1.47-1.48c-.35-.65-.52-1.46-.52-2.42s.16-1.76,.48-2.44c.32-.68,.77-1.19,1.35-1.55,.58-.36,1.26-.54,2.04-.54Zm0,1.22c-.64,0-1.15,.21-1.53,.62-.39,.41-.61,1.01-.68,1.78h4.24c0-.47-.08-.89-.23-1.25-.15-.36-.37-.64-.66-.85s-.67-.3-1.14-.3Z"/><path d="M91.63,63.58c.16,0,.33,0,.51,.03,.18,.02,.34,.04,.47,.07l-.16,1.46c-.12-.03-.27-.06-.43-.08-.16-.02-.32-.03-.46-.03-.33,0-.65,.06-.95,.19-.3,.13-.57,.31-.8,.54-.23,.24-.41,.53-.54,.87-.13,.34-.2,.73-.2,1.17v4.56h-1.58v-8.63h1.27l.19,1.56h.07c.18-.31,.39-.6,.65-.86,.25-.26,.54-.47,.88-.62,.33-.15,.7-.23,1.1-.23Z"/><path d="M97.35,63.58c.75,0,1.4,.16,1.93,.48,.54,.32,.95,.77,1.24,1.36,.29,.58,.43,1.27,.43,2.07v.89h-5.85c.02,.92,.25,1.63,.71,2.12s1.1,.74,1.93,.74c.55,0,1.04-.05,1.46-.16,.43-.1,.87-.26,1.33-.46v1.32c-.43,.2-.87,.34-1.3,.43-.44,.09-.96,.14-1.56,.14-.83,0-1.57-.17-2.2-.5s-1.12-.83-1.47-1.48c-.35-.65-.52-1.46-.52-2.42s.16-1.76,.48-2.44c.32-.68,.77-1.19,1.35-1.55,.58-.36,1.26-.54,2.04-.54Zm0,1.22c-.64,0-1.15,.21-1.53,.62-.39,.41-.61,1.01-.68,1.78h4.24c0-.47-.08-.89-.23-1.25-.15-.36-.37-.64-.66-.85-.29-.2-.67-.3-1.14-.3Z"/><path d="M106.26,72.52c-1.05,0-1.9-.37-2.52-1.12s-.94-1.85-.94-3.32,.32-2.6,.96-3.36c.64-.76,1.49-1.14,2.55-1.14,.44,0,.83,.06,1.17,.18,.33,.12,.62,.28,.86,.48,.24,.2,.45,.42,.61,.67h.09c-.03-.16-.05-.39-.08-.68-.03-.29-.04-.55-.04-.77v-3.28h1.57v12.18h-1.24l-.26-1.2h-.07c-.16,.25-.36,.48-.6,.68-.24,.21-.53,.37-.87,.49-.34,.12-.73,.18-1.19,.18Zm.37-1.28c.85,0,1.45-.25,1.8-.74,.35-.49,.53-1.22,.54-2.18v-.24c0-1.03-.17-1.82-.5-2.37-.34-.55-.95-.83-1.85-.83-.73,0-1.28,.29-1.65,.86-.37,.57-.56,1.36-.56,2.38s.18,1.77,.56,2.31c.37,.54,.93,.81,1.67,.81Z"/><path d="M119.96,71.25c.22,0,.45-.02,.68-.06,.23-.04,.43-.09,.59-.15v1.21c-.18,.08-.41,.14-.71,.2s-.6,.08-.9,.08c-.47,0-.9-.08-1.28-.24-.38-.16-.68-.44-.91-.83-.23-.39-.34-.93-.34-1.63v-4.87h-1.2v-.73l1.25-.58,.56-1.86h.97v1.96h2.5v1.21h-2.5v4.84c0,.49,.12,.85,.35,1.09,.23,.24,.54,.36,.93,.36Z"/><path d="M130.45,68.04c0,.71-.09,1.34-.28,1.9-.18,.56-.45,1.03-.81,1.41s-.78,.68-1.27,.88c-.5,.2-1.06,.3-1.68,.3-.58,0-1.12-.1-1.61-.3-.49-.2-.91-.49-1.26-.88-.36-.38-.63-.85-.82-1.41s-.29-1.19-.29-1.9c0-.94,.16-1.75,.49-2.42,.32-.67,.79-1.17,1.39-1.52,.6-.35,1.32-.52,2.16-.52s1.49,.17,2.09,.52c.6,.35,1.07,.86,1.4,1.52,.33,.66,.5,1.47,.5,2.41Zm-6.41,0c0,.66,.08,1.23,.25,1.71,.17,.48,.43,.84,.78,1.1,.35,.26,.81,.38,1.37,.38s1-.13,1.35-.38c.35-.26,.62-.62,.78-1.1s.25-1.05,.25-1.71-.08-1.22-.25-1.69c-.17-.47-.43-.83-.78-1.08-.35-.25-.81-.38-1.37-.38-.82,0-1.43,.28-1.81,.83-.38,.55-.58,1.32-.58,2.32Z"/><path d="M143.46,72.35l-1.31-4.51c-.06-.2-.12-.43-.18-.67s-.13-.49-.19-.74-.12-.47-.17-.69c-.05-.21-.09-.38-.11-.51h-.06c-.03,.13-.06,.3-.11,.51-.05,.21-.1,.44-.16,.69-.06,.25-.12,.5-.19,.75-.07,.25-.13,.48-.19,.68l-1.38,4.49h-1.74l-2.4-8.62h1.6l1.18,4.52c.08,.3,.15,.62,.23,.94s.14,.63,.19,.92c.05,.29,.09,.53,.12,.74h.06c.03-.14,.06-.3,.1-.5s.08-.41,.13-.63,.1-.44,.15-.65c.05-.21,.11-.39,.15-.55l1.46-4.78h1.71l1.4,4.77c.07,.23,.14,.49,.21,.77s.14,.57,.2,.84c.06,.28,.1,.51,.12,.71h.06c.02-.18,.06-.41,.12-.69,.06-.28,.12-.59,.2-.92s.15-.65,.24-.97l1.2-4.52h1.58l-2.41,8.62h-1.78Z"/><path d="M150.23,60.48c.25,0,.47,.07,.65,.22,.18,.15,.27,.38,.27,.71s-.09,.57-.27,.72c-.18,.15-.39,.22-.65,.22s-.47-.07-.65-.22c-.17-.15-.26-.39-.26-.72s.09-.57,.26-.71c.17-.15,.39-.22,.65-.22Zm.78,3.26v8.63h-1.57v-8.63h1.57Z"/><path d="M157.93,63.58c1,0,1.76,.25,2.3,.75s.8,1.3,.8,2.41v5.62h-1.56v-5.41c0-.69-.15-1.21-.45-1.55-.3-.35-.77-.52-1.39-.52-.89,0-1.52,.26-1.87,.79-.36,.53-.54,1.29-.54,2.29v4.4h-1.57v-8.63h1.24l.23,1.21h.09c.18-.3,.41-.56,.7-.76,.28-.2,.6-.36,.94-.46,.35-.1,.71-.15,1.09-.15Z"/></g></g></svg>